<svg width="211" height="40" viewBox="0 0 211 40" fill="none" xmlns="http://www.w3.org/2000/svg">
<path d="M10.5684 6.08461C10.7127 3.20395 8.87212 0.122861 5.75666 0.0896864C5.27973 -0.103962 4.37659 0.0563331 3.89565 0.192063C0.956935 1.02166 -0.620398 4.0187 0.229083 6.9321C0.727629 8.64225 1.71392 9.44717 3.21465 10.2762L3.21356 22.5119C3.21259 23.4036 3.05575 24.2697 3.73675 24.9623C4.50502 25.7441 5.83666 25.7793 6.61489 24.9872C7.18627 24.4056 7.12957 23.6321 7.12994 22.8786L7.12933 15.5779V10.2762C7.63977 10.14 8.08855 9.82985 8.51705 9.53232C10.0326 10.3095 11.7345 11.2662 13.2039 12.1242L14.717 13.0187C15.4551 13.4562 16.2461 14.029 17.1495 13.7911C18.6256 13.4026 19.2055 11.5646 17.9749 10.5172C17.6816 10.2675 17.3192 10.0875 16.9869 9.89547L15.5279 9.04519C13.8737 8.06245 12.2442 7.03023 10.5684 6.08461Z" fill="#DCE8FF"/>
<path d="M36.6664 10.3557C37.0573 10.1295 37.4609 9.90998 37.8263 9.64386C41.7077 6.81816 40.123 0.839189 35.1964 0.0897635C31.7307 -0.297352 28.7476 2.89958 29.3922 6.3656L9.15887 29.1647C8.80818 29.5583 8.44159 29.9459 8.12901 30.371C5.66809 28.7414 2.16783 29.4473 0.68275 32.0691C-0.747701 34.5945 0.147059 37.9174 2.70085 39.3287C6.77491 41.5799 11.6538 37.8076 10.3416 33.3846C11.1526 32.5949 11.8896 31.7228 12.6495 30.8841L27.4299 14.5514C28.8301 12.9899 30.2394 11.4082 31.7046 9.90998L32.6581 10.3557L32.6587 23.7956C32.6587 25.783 32.6345 27.7728 32.6581 29.7603C32.1495 29.8185 31.7938 30.0938 31.3817 30.371C29.7102 29.4692 27.9853 28.4527 26.3422 27.4975C25.5908 27.0614 24.3794 26.2609 23.5952 25.9965C21.6415 25.336 20.2142 28.0524 21.658 29.3084C22.1992 29.7791 22.9288 30.1047 23.5497 30.4705C25.4573 31.593 27.4087 32.6441 29.3217 33.7582C28.7719 40.5052 37.1544 41.999 39.4286 36.9519C40.6583 34.2221 39.4013 30.972 36.6664 29.7603V12.3255C36.6658 11.6767 36.613 10.9999 36.6664 10.3557Z" fill="#DCE8FF"/>
<path d="M36.6664 10.3557C37.0573 10.1295 37.4609 9.90998 37.8263 9.64386C41.7077 6.81816 40.123 0.839189 35.1964 0.0897635C31.7307 -0.297352 28.7476 2.89958 29.3922 6.3656L9.15887 29.1647C8.80818 29.5583 8.44159 29.9459 8.12901 30.371C5.66809 28.7414 2.16783 29.4473 0.68275 32.0691C-0.747701 34.5945 0.147059 37.9174 2.70085 39.3287C6.77491 41.5799 11.6538 37.8076 10.3416 33.3846C11.1526 32.5949 11.8896 31.7228 12.6495 30.8841L27.4299 14.5514C28.8301 12.9899 30.2394 11.4082 31.7046 9.90998L32.6581 10.3557L32.6587 23.7956C32.6587 25.783 32.6345 27.7728 32.6581 29.7603C32.1495 29.8185 31.7938 30.0938 31.3817 30.371C29.7102 29.4692 27.9853 28.4527 26.3422 27.4975C25.5908 27.0614 24.3794 26.2609 23.5952 25.9965C21.6415 25.336 20.2142 28.0524 21.658 29.3084C22.1992 29.7791 22.9288 30.1047 23.5497 30.4705C25.4573 31.593 27.4087 32.6441 29.3217 33.7582C28.7719 40.5052 37.1544 41.999 39.4286 36.9519C40.6583 34.2221 39.4013 30.972 36.6664 29.7603V12.3255C36.6658 11.6767 36.613 10.9999 36.6664 10.3557Z" fill="#DCE8FF"/>
<path d="M10.5684 6.08461C10.7127 3.20395 8.87212 0.122861 5.75666 0.0896864C5.27973 -0.103962 4.37659 0.0563331 3.89565 0.192063C0.956935 1.02166 -0.620398 4.0187 0.229083 6.9321C0.727629 8.64225 1.71392 9.44717 3.21465 10.2762L3.21356 22.5119C3.21259 23.4036 3.05575 24.2697 3.73675 24.9623C4.50502 25.7441 5.83666 25.7793 6.61489 24.9872C7.18627 24.4056 7.12957 23.6321 7.12994 22.8786L7.12933 15.5779V10.2762C7.63977 10.14 8.08855 9.82985 8.51705 9.53232C10.0326 10.3095 11.7345 11.2662 13.2039 12.1242L14.717 13.0187C15.4551 13.4562 16.2461 14.029 17.1495 13.7911C18.6256 13.4026 19.2055 11.5646 17.9749 10.5172C17.6816 10.2675 17.3192 10.0875 16.9869 9.89547L15.5279 9.04519C13.8737 8.06245 12.2442 7.03023 10.5684 6.08461Z" fill="#DCE8FF"/>
<path d="M52.124 30.5V9.02539H58.6133L62.5098 23.6738L66.3623 9.02539H72.8662V30.5H68.8379V13.5957L64.5752 30.5H60.4004L56.1523 13.5957V30.5H52.124ZM77.1436 12.834V9.02539H81.2598V12.834H77.1436ZM77.1436 30.5V14.9434H81.2598V30.5H77.1436ZM99.7607 30.5H95.9375V28.2148C95.3027 29.1035 94.5508 29.7676 93.6816 30.207C92.8223 30.6367 91.9531 30.8516 91.0742 30.8516C89.2871 30.8516 87.7539 30.1338 86.4746 28.6982C85.2051 27.2529 84.5703 25.2412 84.5703 22.6631C84.5703 20.0264 85.1904 18.0244 86.4307 16.6572C87.6709 15.2803 89.2383 14.5918 91.1328 14.5918C92.8711 14.5918 94.375 15.3145 95.6445 16.7598V9.02539H99.7607V30.5ZM88.7744 22.3848C88.7744 24.0449 89.0039 25.2461 89.4629 25.9883C90.127 27.0625 91.0547 27.5996 92.2461 27.5996C93.1934 27.5996 93.999 27.1992 94.6631 26.3984C95.3271 25.5879 95.6592 24.3818 95.6592 22.7803C95.6592 20.9932 95.3369 19.709 94.6924 18.9277C94.0479 18.1367 93.2227 17.7412 92.2168 17.7412C91.2402 17.7412 90.4199 18.1318 89.7559 18.9131C89.1016 19.6846 88.7744 20.8418 88.7744 22.3848ZM103.745 12.834V9.02539H107.861V12.834H103.745ZM107.861 14.9434V30.0166C107.861 31.999 107.729 33.3955 107.466 34.2061C107.212 35.0264 106.714 35.666 105.972 36.125C105.239 36.584 104.302 36.8135 103.159 36.8135C102.749 36.8135 102.305 36.7744 101.826 36.6963C101.357 36.6279 100.85 36.5205 100.303 36.374L101.021 32.8584C101.216 32.8975 101.401 32.9268 101.577 32.9463C101.743 32.9756 101.899 32.9902 102.046 32.9902C102.466 32.9902 102.808 32.8975 103.071 32.7119C103.345 32.5361 103.525 32.3213 103.613 32.0674C103.701 31.8135 103.745 31.0518 103.745 29.7822V14.9434H107.861ZM111.23 22.502C111.23 21.1348 111.567 19.8115 112.241 18.5322C112.915 17.2529 113.867 16.2764 115.098 15.6025C116.338 14.9287 117.72 14.5918 119.243 14.5918C121.597 14.5918 123.525 15.3584 125.029 16.8916C126.533 18.415 127.285 20.3438 127.285 22.6777C127.285 25.0312 126.523 26.9844 125 28.5371C123.486 30.0801 121.577 30.8516 119.272 30.8516C117.847 30.8516 116.484 30.5293 115.186 29.8848C113.896 29.2402 112.915 28.2979 112.241 27.0576C111.567 25.8076 111.23 24.2891 111.23 22.502ZM115.449 22.7217C115.449 24.2646 115.815 25.4463 116.548 26.2666C117.28 27.0869 118.184 27.4971 119.258 27.4971C120.332 27.4971 121.23 27.0869 121.953 26.2666C122.686 25.4463 123.052 24.2549 123.052 22.6924C123.052 21.1689 122.686 19.9971 121.953 19.1768C121.23 18.3564 120.332 17.9463 119.258 17.9463C118.184 17.9463 117.28 18.3564 116.548 19.1768C115.815 19.9971 115.449 21.1787 115.449 22.7217ZM140.762 30.5V28.1709C140.195 29.001 139.448 29.6553 138.521 30.1338C137.603 30.6123 136.631 30.8516 135.605 30.8516C134.561 30.8516 133.623 30.6221 132.793 30.1631C131.963 29.7041 131.362 29.0596 130.991 28.2295C130.62 27.3994 130.435 26.252 130.435 24.7871V14.9434H134.551V22.0918C134.551 24.2793 134.624 25.6221 134.771 26.1201C134.927 26.6084 135.205 26.999 135.605 27.292C136.006 27.5752 136.514 27.7168 137.129 27.7168C137.832 27.7168 138.462 27.5264 139.019 27.1455C139.575 26.7549 139.956 26.2764 140.161 25.71C140.366 25.1338 140.469 23.7324 140.469 21.5059V14.9434H144.585V30.5H140.762ZM152.803 30.5H148.687V14.9434H152.51V17.1553C153.164 16.1104 153.75 15.4219 154.268 15.0898C154.795 14.7578 155.391 14.5918 156.055 14.5918C156.992 14.5918 157.896 14.8506 158.765 15.3682L157.49 18.957C156.797 18.5078 156.152 18.2832 155.557 18.2832C154.98 18.2832 154.492 18.4443 154.092 18.7666C153.691 19.0791 153.374 19.6504 153.14 20.4805C152.915 21.3105 152.803 23.0488 152.803 25.6953V30.5ZM174.702 30.5H170.586V22.5605C170.586 20.8809 170.498 19.7969 170.322 19.3086C170.146 18.8105 169.858 18.4248 169.458 18.1514C169.067 17.8779 168.594 17.7412 168.037 17.7412C167.324 17.7412 166.685 17.9365 166.118 18.3271C165.552 18.7178 165.161 19.2354 164.946 19.8799C164.741 20.5244 164.639 21.7158 164.639 23.4541V30.5H160.522V14.9434H164.346V17.2285C165.703 15.4707 167.412 14.5918 169.473 14.5918C170.381 14.5918 171.211 14.7578 171.963 15.0898C172.715 15.4121 173.281 15.8271 173.662 16.335C174.053 16.8428 174.321 17.4189 174.468 18.0635C174.624 18.708 174.702 19.6309 174.702 20.832V30.5ZM187.9 25.5488L192.002 26.2373C191.475 27.7412 190.64 28.8887 189.497 29.6797C188.364 30.4609 186.943 30.8516 185.234 30.8516C182.529 30.8516 180.527 29.9678 179.229 28.2002C178.203 26.7842 177.69 24.9971 177.69 22.8389C177.69 20.2607 178.364 18.2441 179.712 16.7891C181.06 15.3242 182.764 14.5918 184.824 14.5918C187.139 14.5918 188.965 15.3584 190.303 16.8916C191.641 18.415 192.28 20.7539 192.222 23.9082H181.909C181.938 25.1289 182.271 26.0811 182.905 26.7646C183.54 27.4385 184.331 27.7754 185.278 27.7754C185.923 27.7754 186.465 27.5996 186.904 27.248C187.344 26.8965 187.676 26.3301 187.9 25.5488ZM188.135 21.3887C188.105 20.1973 187.798 19.2939 187.212 18.6787C186.626 18.0537 185.913 17.7412 185.073 17.7412C184.175 17.7412 183.433 18.0684 182.847 18.7227C182.261 19.377 181.973 20.2656 181.982 21.3887H188.135ZM193.643 14.9434H198.022L201.743 25.9883L205.376 14.9434H209.639L204.146 29.9141L203.164 32.624C202.803 33.5322 202.456 34.2256 202.124 34.7041C201.802 35.1826 201.426 35.5684 200.996 35.8613C200.576 36.1641 200.054 36.3984 199.429 36.5645C198.813 36.7305 198.115 36.8135 197.334 36.8135C196.543 36.8135 195.767 36.7305 195.005 36.5645L194.639 33.3418C195.283 33.4688 195.864 33.5322 196.382 33.5322C197.339 33.5322 198.047 33.249 198.506 32.6826C198.965 32.126 199.316 31.4131 199.561 30.5439L193.643 14.9434Z" fill="#DCE8FF"/>
</svg>
