<svg width="127" height="24" viewBox="0 0 127 24" fill="none" xmlns="http://www.w3.org/2000/svg">
<path d="M6.34105 3.65076C6.42765 1.92237 5.32327 0.0737165 3.454 0.0538118C3.16784 -0.0623773 2.62595 0.0337998 2.33739 0.115238C0.574161 0.612999 -0.372239 2.41122 0.13745 4.15926C0.436577 5.18535 1.02835 5.6683 1.92879 6.16573L1.92814 13.5072C1.92755 14.0421 1.83345 14.5618 2.24205 14.9774C2.70301 15.4465 3.502 15.4676 3.96893 14.9923C4.31176 14.6434 4.27774 14.1793 4.27796 13.7272L4.2776 9.34676V6.16573C4.58386 6.084 4.85313 5.89791 5.11023 5.71939C6.01956 6.18568 7.04069 6.75974 7.92234 7.2745L8.8302 7.81123C9.27303 8.07374 9.74769 8.41739 10.2897 8.27468C11.1754 8.04157 11.5233 6.93878 10.7849 6.31034C10.6089 6.16049 10.3915 6.05249 10.1921 5.93728L9.31673 5.42711C8.32423 4.83747 7.34651 4.21814 6.34105 3.65076Z" fill="#DCE8FF"/>
<path d="M22.0001 6.2134C22.2347 6.07767 22.4768 5.94594 22.6961 5.78627C25.0249 4.09085 24.0741 0.503465 21.1181 0.0538093C19.0387 -0.17846 17.2488 1.7397 17.6356 3.81931L5.49562 17.4988C5.2852 17.7349 5.06524 17.9675 4.8777 18.2225C3.40114 17.2448 1.30099 17.6683 0.409943 19.2414C-0.448327 20.7567 0.0885285 22.7504 1.6208 23.5972C4.06524 24.9479 6.99256 22.6845 6.20523 20.0307C6.69184 19.5569 7.13408 19.0337 7.59002 18.5304L16.4582 8.73077C17.2984 7.79391 18.144 6.84489 19.0231 5.94594L19.5952 6.2134L19.5955 14.2773C19.5955 15.4697 19.581 16.6637 19.5952 17.8561C19.29 17.891 19.0766 18.0563 18.8293 18.2225C17.8264 17.6814 16.7914 17.0716 15.8056 16.4985C15.3548 16.2368 14.6279 15.7565 14.1574 15.5978C12.9852 15.2016 12.1288 16.8314 12.9951 17.585C13.3198 17.8674 13.7576 18.0628 14.1301 18.2822C15.2747 18.9558 16.4455 19.5864 17.5933 20.2549C17.2634 24.3031 22.2929 25.1994 23.6575 22.1711C24.3953 20.5332 23.6411 18.5832 22.0001 17.8561V7.39523C21.9998 7.00594 21.9681 6.59992 22.0001 6.2134Z" fill="#DCE8FF"/>
<path d="M22.0001 6.2134C22.2347 6.07767 22.4768 5.94594 22.6961 5.78627C25.0249 4.09085 24.0741 0.503465 21.1181 0.0538093C19.0387 -0.17846 17.2488 1.7397 17.6356 3.81931L5.49562 17.4988C5.2852 17.7349 5.06524 17.9675 4.8777 18.2225C3.40114 17.2448 1.30099 17.6683 0.409943 19.2414C-0.448327 20.7567 0.0885285 22.7504 1.6208 23.5972C4.06524 24.9479 6.99256 22.6845 6.20523 20.0307C6.69184 19.5569 7.13408 19.0337 7.59002 18.5304L16.4582 8.73077C17.2984 7.79391 18.144 6.84489 19.0231 5.94594L19.5952 6.2134L19.5955 14.2773C19.5955 15.4697 19.581 16.6637 19.5952 17.8561C19.29 17.891 19.0766 18.0563 18.8293 18.2225C17.8264 17.6814 16.7914 17.0716 15.8056 16.4985C15.3548 16.2368 14.6279 15.7565 14.1574 15.5978C12.9852 15.2016 12.1288 16.8314 12.9951 17.585C13.3198 17.8674 13.7576 18.0628 14.1301 18.2822C15.2747 18.9558 16.4455 19.5864 17.5933 20.2549C17.2634 24.3031 22.2929 25.1994 23.6575 22.1711C24.3953 20.5332 23.6411 18.5832 22.0001 17.8561V7.39523C21.9998 7.00594 21.9681 6.59992 22.0001 6.2134Z" fill="#DCE8FF"/>
<path d="M6.34105 3.65076C6.42765 1.92237 5.32327 0.0737165 3.454 0.0538118C3.16784 -0.0623773 2.62595 0.0337998 2.33739 0.115238C0.574161 0.612999 -0.372239 2.41122 0.13745 4.15926C0.436577 5.18535 1.02835 5.6683 1.92879 6.16573L1.92814 13.5072C1.92755 14.0421 1.83345 14.5618 2.24205 14.9774C2.70301 15.4465 3.502 15.4676 3.96893 14.9923C4.31176 14.6434 4.27774 14.1793 4.27796 13.7272L4.2776 9.34676V6.16573C4.58386 6.084 4.85313 5.89791 5.11023 5.71939C6.01956 6.18568 7.04069 6.75974 7.92234 7.2745L8.8302 7.81123C9.27303 8.07374 9.74769 8.41739 10.2897 8.27468C11.1754 8.04157 11.5233 6.93878 10.7849 6.31034C10.6089 6.16049 10.3915 6.05249 10.1921 5.93728L9.31673 5.42711C8.32423 4.83747 7.34651 4.21814 6.34105 3.65076Z" fill="#DCE8FF"/>
<path d="M31.2744 18.5V5.61523H35.168L37.5059 14.4043L39.8174 5.61523H43.7197V18.5H41.3027V8.35742L38.7451 18.5H36.2402L33.6914 8.35742V18.5H31.2744ZM46.2861 7.90039V5.61523H48.7559V7.90039H46.2861ZM46.2861 18.5V9.16602H48.7559V18.5H46.2861ZM59.8564 18.5H57.5625V17.1289C57.1816 17.6621 56.7305 18.0605 56.209 18.3242C55.6934 18.582 55.1719 18.7109 54.6445 18.7109C53.5723 18.7109 52.6523 18.2803 51.8848 17.4189C51.123 16.5518 50.7422 15.3447 50.7422 13.7979C50.7422 12.2158 51.1143 11.0146 51.8584 10.1943C52.6025 9.36816 53.543 8.95508 54.6797 8.95508C55.7227 8.95508 56.625 9.38867 57.3867 10.2559V5.61523H59.8564V18.5ZM53.2646 13.6309C53.2646 14.627 53.4023 15.3477 53.6777 15.793C54.0762 16.4375 54.6328 16.7598 55.3477 16.7598C55.916 16.7598 56.3994 16.5195 56.7979 16.0391C57.1963 15.5527 57.3955 14.8291 57.3955 13.8682C57.3955 12.7959 57.2021 12.0254 56.8154 11.5566C56.4287 11.082 55.9336 10.8447 55.3301 10.8447C54.7441 10.8447 54.252 11.0791 53.8535 11.5479C53.4609 12.0107 53.2646 12.7051 53.2646 13.6309ZM62.2471 7.90039V5.61523H64.7168V7.90039H62.2471ZM64.7168 9.16602V18.21C64.7168 19.3994 64.6377 20.2373 64.4795 20.7236C64.3271 21.2158 64.0283 21.5996 63.583 21.875C63.1436 22.1504 62.5811 22.2881 61.8955 22.2881C61.6494 22.2881 61.3828 22.2646 61.0957 22.2178C60.8145 22.1768 60.5098 22.1123 60.1816 22.0244L60.6123 19.915C60.7295 19.9385 60.8408 19.9561 60.9463 19.9678C61.0459 19.9854 61.1396 19.9941 61.2275 19.9941C61.4795 19.9941 61.6846 19.9385 61.8428 19.8271C62.0068 19.7217 62.1152 19.5928 62.168 19.4404C62.2207 19.2881 62.2471 18.8311 62.2471 18.0693V9.16602H64.7168ZM66.7383 13.7012C66.7383 12.8809 66.9404 12.0869 67.3447 11.3193C67.749 10.5518 68.3203 9.96582 69.0586 9.56152C69.8027 9.15723 70.6318 8.95508 71.5459 8.95508C72.958 8.95508 74.1152 9.41504 75.0176 10.335C75.9199 11.249 76.3711 12.4062 76.3711 13.8066C76.3711 15.2188 75.9141 16.3906 75 17.3223C74.0918 18.248 72.9463 18.7109 71.5635 18.7109C70.708 18.7109 69.8906 18.5176 69.1113 18.1309C68.3379 17.7441 67.749 17.1787 67.3447 16.4346C66.9404 15.6846 66.7383 14.7734 66.7383 13.7012ZM69.2695 13.833C69.2695 14.7588 69.4893 15.4678 69.9287 15.96C70.3682 16.4521 70.9102 16.6982 71.5547 16.6982C72.1992 16.6982 72.7383 16.4521 73.1719 15.96C73.6113 15.4678 73.8311 14.7529 73.8311 13.8154C73.8311 12.9014 73.6113 12.1982 73.1719 11.7061C72.7383 11.2139 72.1992 10.9678 71.5547 10.9678C70.9102 10.9678 70.3682 11.2139 69.9287 11.7061C69.4893 12.1982 69.2695 12.9072 69.2695 13.833ZM84.457 18.5V17.1025C84.1172 17.6006 83.6689 17.9932 83.1123 18.2803C82.5615 18.5674 81.9785 18.7109 81.3633 18.7109C80.7363 18.7109 80.1738 18.5732 79.6758 18.2979C79.1777 18.0225 78.8174 17.6357 78.5947 17.1377C78.3721 16.6396 78.2607 15.9512 78.2607 15.0723V9.16602H80.7305V13.4551C80.7305 14.7676 80.7744 15.5732 80.8623 15.8721C80.9561 16.165 81.123 16.3994 81.3633 16.5752C81.6035 16.7451 81.9082 16.8301 82.2773 16.8301C82.6992 16.8301 83.0771 16.7158 83.4111 16.4873C83.7451 16.2529 83.9736 15.9658 84.0967 15.626C84.2197 15.2803 84.2812 14.4395 84.2812 13.1035V9.16602H86.751V18.5H84.457ZM91.6816 18.5H89.2119V9.16602H91.5059V10.4932C91.8984 9.86621 92.25 9.45312 92.5605 9.25391C92.877 9.05469 93.2344 8.95508 93.6328 8.95508C94.1953 8.95508 94.7373 9.11035 95.2588 9.4209L94.4941 11.5742C94.0781 11.3047 93.6914 11.1699 93.334 11.1699C92.9883 11.1699 92.6953 11.2666 92.4551 11.46C92.2148 11.6475 92.0244 11.9902 91.8838 12.4883C91.749 12.9863 91.6816 14.0293 91.6816 15.6172V18.5ZM104.821 18.5H102.352V13.7363C102.352 12.7285 102.299 12.0781 102.193 11.7852C102.088 11.4863 101.915 11.2549 101.675 11.0908C101.44 10.9268 101.156 10.8447 100.822 10.8447C100.395 10.8447 100.011 10.9619 99.6709 11.1963C99.3311 11.4307 99.0967 11.7412 98.9678 12.1279C98.8447 12.5146 98.7832 13.2295 98.7832 14.2725V18.5H96.3135V9.16602H98.6074V10.5371C99.4219 9.48242 100.447 8.95508 101.684 8.95508C102.229 8.95508 102.727 9.05469 103.178 9.25391C103.629 9.44727 103.969 9.69629 104.197 10.001C104.432 10.3057 104.593 10.6514 104.681 11.0381C104.774 11.4248 104.821 11.9785 104.821 12.6992V18.5ZM112.74 15.5293L115.201 15.9424C114.885 16.8447 114.384 17.5332 113.698 18.0078C113.019 18.4766 112.166 18.7109 111.141 18.7109C109.518 18.7109 108.316 18.1807 107.537 17.1201C106.922 16.2705 106.614 15.1982 106.614 13.9033C106.614 12.3564 107.019 11.1465 107.827 10.2734C108.636 9.39453 109.658 8.95508 110.895 8.95508C112.283 8.95508 113.379 9.41504 114.182 10.335C114.984 11.249 115.368 12.6523 115.333 14.5449H109.146C109.163 15.2773 109.362 15.8486 109.743 16.2588C110.124 16.6631 110.599 16.8652 111.167 16.8652C111.554 16.8652 111.879 16.7598 112.143 16.5488C112.406 16.3379 112.605 15.998 112.74 15.5293ZM112.881 13.0332C112.863 12.3184 112.679 11.7764 112.327 11.4072C111.976 11.0322 111.548 10.8447 111.044 10.8447C110.505 10.8447 110.06 11.041 109.708 11.4336C109.356 11.8262 109.184 12.3594 109.189 13.0332H112.881ZM116.186 9.16602H118.813L121.046 15.793L123.226 9.16602H125.783L122.487 18.1484L121.898 19.7744C121.682 20.3193 121.474 20.7354 121.274 21.0225C121.081 21.3096 120.855 21.541 120.598 21.7168C120.346 21.8984 120.032 22.0391 119.657 22.1387C119.288 22.2383 118.869 22.2881 118.4 22.2881C117.926 22.2881 117.46 22.2383 117.003 22.1387L116.783 20.2051C117.17 20.2812 117.519 20.3193 117.829 20.3193C118.403 20.3193 118.828 20.1494 119.104 19.8096C119.379 19.4756 119.59 19.0479 119.736 18.5264L116.186 9.16602Z" fill="#DCE8FF"/>
</svg>
